<svg height="464pt" viewBox="0 0 464 464" width="464pt" xmlns="http://www.w3.org/2000/svg"><path d="m464 232c0 128.128906-103.871094 232-232 232s-232-103.871094-232-232 103.871094-232 232-232 232 103.871094 232 232zm0 0" fill="#e88623"/><path d="m440 216c.054688-72.492188-33.839844-140.824219-91.585938-184.648438-105.945312-61.125-241.152343-29.496093-308.988281 72.285157-67.839843 101.78125-45 238.746093 52.191407 313.011719 71.761718 41.613281 160.285156 41.746093 232.171874.34375 71.882813-41.402344 116.195313-118.035157 116.210938-200.992188zm0 0" fill="#fd9226"/><path d="m260 272c0 11.046875-8.953125 20-20 20s-20-8.953125-20-20 8.953125-20 20-20 20 8.953125 20 20zm0 0" fill="#e48422"/><path d="m368 264c0 8.835938-7.164062 16-16 16s-16-7.164062-16-16 7.164062-16 16-16 16 7.164062 16 16zm0 0" fill="#fbaf5f"/><path d="m140.664062 314.105469c9.625 9.003906 22.339844 13.976562 35.519532 13.894531h267.015625c2.402343-5.238281 4.640625-10.558594 6.640625-16h-273.65625c-9.09375.027344-17.863282-3.382812-24.550782-9.542969-20.097656-18.445312-50.960937-18.445312-71.058593 0-.324219.308594-.625.648438-.894531 1.007813-6.632813 8.703125-9.128907 19.875-6.824219 30.574218 2.515625 11.121094 9.777343 20.578126 19.863281 25.890626l1.601562.847656c5.597657 2.859375 11.820313 4.277344 18.105469 4.125 1.925781.003906 3.851563-.09375 5.765625-.292969 14.523438-1.515625 25.953125-13.082031 27.289063-27.625.140625-1.554687-.175781-3.113281-.914063-4.488281-4.222656-7.789063-12.410156-12.601563-21.269531-12.496094h-7.199219c-4.421875 0-8 3.582031-8 8s3.578125 8 8 8h7.199219c2.113281-.015625 4.15625.769531 5.71875 2.191406-1.609375 5.722656-6.542969 9.882813-12.457031 10.496094-4.992188.78125-10.101563.082031-14.703125-2.007812l-1.597657-.847657c-5.960937-3.105469-10.261718-8.65625-11.785156-15.199219-1.296875-5.910156.003906-12.09375 3.566406-16.984374 13.9375-12.3125 34.921876-12.117188 48.625.457031zm0 0" fill="#d37a20"/><path d="m140.664062 314.105469c9.625 9.003906 22.339844 13.976562 35.519532 13.894531h235.015625c2.878906-5.207031 5.527343-10.550781 8-16h-243.015625c-9.09375.027344-17.863282-3.382812-24.550782-9.542969-20.097656-18.445312-50.960937-18.445312-71.058593 0-.324219.308594-.625.648438-.894531 1.007813-6.632813 8.703125-9.128907 19.875-6.824219 30.574218 2.515625 11.121094 9.777343 20.578126 19.863281 25.890626l1.601562.847656c5.597657 2.859375 11.820313 4.277344 18.105469 4.125 1.925781.003906 3.851563-.09375 5.765625-.292969 14.523438-1.515625 25.953125-13.082031 27.289063-27.625.140625-1.554687-.175781-3.113281-.914063-4.488281-4.222656-7.789063-12.410156-12.601563-21.269531-12.496094h-7.199219c-4.421875 0-8 3.582031-8 8s3.578125 8 8 8h7.199219c2.113281-.015625 4.15625.769531 5.71875 2.191406-1.609375 5.722656-6.542969 9.882813-12.457031 10.496094-4.992188.78125-10.101563.082031-14.703125-2.007812l-1.597657-.847657c-5.960937-3.105469-10.261718-8.65625-11.785156-15.199219-1.296875-5.910156.003906-12.09375 3.566406-16.984374 13.9375-12.3125 34.921876-12.117188 48.625.457031zm0 0" fill="#e48422"/><path d="m167.761719 214.320312-12.59375 3.433594c-33.371094 9.113282-68.628907 8.667969-101.761719-1.28125-16.957031-5.042968-34.511719-7.824218-52.199219-8.273437-.535156 5.265625-.800781 10.601562-1.007812 16 16.472656.363281 32.824219 2.929687 48.617187 7.632812 35.996094 10.804688 74.304688 11.285157 110.558594 1.382813l12.625-3.453125c14.011719-3.820313 28.425781-5.96875 42.945312-6.402344l248.855469.640625c-.183593-5.375-.488281-10.726562-1.03125-16l-248.066406-.671875c-15.867187.472656-31.625 2.820313-46.941406 6.992187zm0 0" fill="#eea65a"/><path d="m439.800781 223.9375c.085938-2.640625.199219-5.273438.199219-7.9375s-.144531-5.375-.238281-8.0625l-225.058594-.609375c-15.867187.472656-31.625 2.820313-46.941406 6.992187l-12.59375 3.433594c-33.371094 9.113282-68.628907 8.667969-101.761719-1.28125-16.957031-5.042968-34.511719-7.824218-52.199219-8.273437-.535156 5.265625-.800781 10.59375-1.007812 16 16.472656.363281 32.824219 2.929687 48.617187 7.632812 35.996094 10.804688 74.304688 11.285157 110.558594 1.382813l12.625-3.453125c14.011719-3.820313 28.425781-5.96875 42.945312-6.402344zm0 0" fill="#fbaf5f"/><path d="m452.558594 160-237.390625.640625c-14.601563-.414063-29.105469-2.5625-43.199219-6.402344l-12.578125-3.421875c-36.261719-9.917968-74.585937-9.4375-110.589844 1.382813-12.097656 3.601562-24.53125 5.957031-37.105469 7.03125-1.773437 5.371093-3.382812 10.816406-4.800781 16.363281 15.753907-.851562 31.347657-3.558594 46.464844-8.066406 33.132813-9.945313 68.390625-10.390625 101.761719-1.28125l12.582031 3.433594c15.402344 4.191406 31.246094 6.539062 47.199219 6.992187l242.257812-.671875c-1.34375-5.398438-2.878906-10.730469-4.601562-16zm0 0" fill="#f0a85b"/><path d="m436.535156 176.070312c-.933594-5.390624-2.050781-10.722656-3.359375-16l-217.976562.601563c-14.601563-.414063-29.105469-2.5625-43.199219-6.398437l-12.574219-3.425782c-36.273437-9.933594-74.609375-9.464844-110.625 1.351563-12.097656 3.601562-24.53125 5.957031-37.105469 7.03125-1.773437 5.378906-3.382812 10.816406-4.800781 16.363281 15.753907-.851562 31.347657-3.558594 46.464844-8.066406 33.132813-9.945313 68.390625-10.390625 101.761719-1.28125l12.582031 3.433594c15.402344 4.191406 31.246094 6.539062 47.199219 6.992187zm0 0" fill="#fbaf5f"/><path d="m354.3125 34.871094-8.503906-1.054688c-22.527344-2.816406-45.34375-2.351562-67.738282 1.375-61.785156 10.265625-124.425781 14.480469-187.03125 12.585938-6.230468 4.78125-12.21875 9.875-17.933593 15.261718 15.542969.738282 31.09375 1.242188 46.664062 1.242188 53.914063 0 107.742188-4.449219 160.925781-13.304688 20.871094-3.484374 42.132813-3.917968 63.128907-1.289062l37.34375 4.664062c-8.480469-7.117187-17.457031-13.628906-26.855469-19.480468zm0 0" fill="#d37a20"/><path d="m352.503906 34.648438-6.695312-.800782c-22.527344-2.816406-45.34375-2.351562-67.738282 1.375-61.785156 10.253906-124.425781 14.460938-187.03125 12.554688-3.113281 2.394531-6.160156 4.855468-9.144531 7.390625l-.054687.03125c-2.976563 2.539062-5.886719 5.144531-8.734375 7.816406 15.542969.738281 31.09375 1.242187 46.664062 1.242187 53.914063.007813 107.742188-4.433593 160.925781-13.28125 20.871094-3.484374 42.132813-3.917968 63.128907-1.289062l29.449219 3.679688c-6.542969-6.648438-13.480469-12.898438-20.769532-18.71875zm0 0" fill="#e48422"/><path d="m431.425781 113.457031c-3.152343-5.289062-6.53125-10.402343-10.082031-15.433593l-25.359375 1.488281c-50.621094 2.960937-101.371094 3.046875-152 .257812-45.261719-2.515625-90.621094-2.746093-135.90625-.691406l-68.375 3.105469c-3.605469 5.335937-6.949219 10.847656-10.109375 16.480468l79.199219-3.601562c44.742187-2.027344 89.558593-1.800781 134.277343.671875 51.242188 2.84375 102.601563 2.761719 153.832032-.246094zm0 0" fill="#d87d20"/><g fill="#e48422"><path d="m416.496094 114.335938c-2.585938-5.289063-5.328125-10.488282-8.296875-15.535157l-12.214844.710938c-50.621094 2.960937-101.371094 3.046875-152 .257812-45.261719-2.515625-90.621094-2.746093-135.90625-.691406l-68.375 3.105469c-3.605469 5.335937-6.949219 10.847656-10.109375 16.480468l79.199219-3.601562c44.742187-2.027344 89.558593-1.800781 134.277343.671875 51.242188 2.84375 102.601563 2.761719 153.832032-.246094zm0 0"/><path d="m120 192c0 8.835938-7.164062 16-16 16s-16-7.164062-16-16 7.164062-16 16-16 16 7.164062 16 16zm0 0"/><path d="m42.664062 262.664062h16v16h-16zm0 0"/><path d="m240 409.335938h16v16h-16zm0 0"/><path d="m296 409.335938h16v16h-16zm0 0"/><path d="m296 72h16v16h-16zm0 0"/><path d="m51.574219 311.503906c-12.578125-6.257812-26.515625-9.285156-40.558594-8.800781 1.726563 5.417969 3.671875 10.730469 5.785156 16 9.605469.417969 19.019531 2.855469 27.625 7.152344 3.953125 1.976562 8.757813.371093 10.734375-3.582031 1.976563-3.957032.371094-8.761719-3.585937-10.738282zm0 0"/></g><path d="m411.433594 379.054688-10.335938-1.375c-48.4375-6.4375-97.390625-8.042969-146.144531-4.800782l-32.6875 2.183594c-10.507813.707031-20.878906 2.746094-30.867187 6.074219-20.570313 6.882812-42.742188 7.359375-63.589844 1.375l-6.039063-1.726563c-11.046875-3.164062-22.472656-4.773437-33.960937-4.785156h-37.601563c4.402344 5.542969 9.039063 10.875 13.921875 16h23.71875c10.011719-.003906 19.976563 1.390625 29.601563 4.144531l6.039062 1.71875c23.945313 6.875 49.417969 6.316407 73.039063-1.597656 8.695312-2.898437 17.726562-4.671875 26.871094-5.28125l32.601562-2.183594c47.53125-3.164062 95.257812-1.601562 142.480469 4.664063 4.511719-4.617188 8.847656-9.410156 12.953125-14.410156zm0 0" fill="#f0a85b"/><path d="m254.953125 372.847656-32.6875 2.183594c-10.507813.703125-20.878906 2.746094-30.867187 6.074219-20.570313 6.878906-42.742188 7.359375-63.589844 1.375l-6.039063-1.726563c-11.046875-3.152344-22.476562-4.75-33.960937-4.753906h-37.570313c.242188.296875.472657.601562.714844.902344 4.09375 5.113281 8.382813 10.066406 12.886719 14.808594l.289062.289062h23.679688c10.011718-.003906 19.972656 1.390625 29.597656 4.144531l6.042969 1.71875c23.945312 6.875 49.414062 6.316407 73.039062-1.597656 8.695313-2.898437 17.726563-4.671875 26.871094-5.28125l32.640625-2.183594c35.242188-2.339843 70.613281-2.070312 105.816406.800781 5.257813-4.667968 10.296875-9.5625 15.113282-14.679687-40.535157-4.058594-81.332032-4.75-121.976563-2.074219zm0 0" fill="#fbaf5f"/></svg>