<?xml version="1.0"?>
<svg xmlns="http://www.w3.org/2000/svg" viewBox="0 0 128 128" width="512" height="512"><title>1</title><g id="number"><text transform="translate(61.012 -282.265)" font-size="40" fill="#24253a" font-family="MyriadPro-Regular, Myriad Pro" letter-spacing="0.002em">8<tspan x="-10.3" y="228">18</tspan><tspan x="-10.3" y="456">28</tspan><tspan x="-10.3" y="684">38</tspan><tspan x="-10.3" y="912">48</tspan><tspan x="-10.3" y="1140">58</tspan><tspan x="-10.3" y="1368">68</tspan><tspan x="-10.3" y="1596">78</tspan><tspan x="-10.3" y="1824">88</tspan><tspan x="-10.3" y="2052">98</tspan><tspan x="-20.599" y="2280">108</tspan><tspan x="-20.599" y="2508">118</tspan><tspan x="-20.599" y="2736">128</tspan><tspan x="-20.599" y="2964">138</tspan><tspan x="-20.599" y="3192">148</tspan><tspan x="-20.599" y="3420">158</tspan><tspan x="-20.599" y="3648">168</tspan><tspan x="-20.599" y="3876">178</tspan><tspan x="-20.599" y="4104">188</tspan><tspan x="-20.599" y="4332">198</tspan><tspan x="-20.599" y="4560">208</tspan><tspan x="-20.599" y="4788">218</tspan><tspan x="-20.599" y="5016">228</tspan><tspan x="-20.599" y="5244">238</tspan><tspan x="-20.599" y="5472">248</tspan></text></g><g id="icon"><path d="M127,64a63.037,63.037,0,0,1-85.862,58.72q-2.7-1.05-5.276-2.342A63.092,63.092,0,0,1,3.775,45.447Q4.5,43.1,5.395,40.834A63.02,63.02,0,0,1,113.633,25.2q1.279,1.631,2.449,3.351A62.7,62.7,0,0,1,127,64Z" fill="#d0aa79"/><path d="M127,64A63.026,63.026,0,0,1,41.14,122.719c-1.8-.693-3.565-1.484-5.276-2.34a63.2,63.2,0,0,1-23.111-19.73c.184.1.368.2.563.292,1.712.856,3.467,1.647,5.277,2.34A63.01,63.01,0,0,0,93.527,9.1q-.406-.6-.845-1.2a63.39,63.39,0,0,1,20.955,17.292c.845,1.083,1.668,2.21,2.449,3.348A62.719,62.719,0,0,1,127,64Z" fill="#bf9a71"/><path d="M64,128a63.668,63.668,0,0,1-23.226-4.346c-1.825-.71-3.63-1.511-5.36-2.38A64.093,64.093,0,0,1,2.819,45.153C3.3,43.6,3.852,42.021,4.464,40.467A64.021,64.021,0,0,1,114.42,24.578c.866,1.1,1.7,2.25,2.489,3.405A64.005,64.005,0,0,1,64,128ZM64,2A61.694,61.694,0,0,0,6.324,41.2c-.594,1.505-1.13,3.033-1.593,4.54A62.091,62.091,0,0,0,36.31,119.484c1.677.842,3.423,1.617,5.19,2.3a62.013,62.013,0,0,0,73.756-92.68c-.761-1.119-1.571-2.228-2.41-3.3A61.666,61.666,0,0,0,64,2Z" fill="#2f3a5a"/><path d="M111.1,70.488a3.483,3.483,0,0,0-2.187-1.528c-2.177-.518-4.174.443-6.136,1.233-10.49,4.226-22.165,4-33.47,3.715L35.53,73.051a3.62,3.62,0,0,0-2.965,1.359,2.111,2.111,0,0,0-.509,1.468,3.878,3.878,0,0,0,2.59,3.037,11.414,11.414,0,0,0,4.146.526l17.3.054a11.868,11.868,0,0,1,4.133.5,4.027,4.027,0,0,1,2.7,2.94c.155,1.017-.225,2.056-.086,3.075a4.117,4.117,0,0,0,2.6,3.031,11.313,11.313,0,0,0,4.1.656,109.684,109.684,0,0,0,30.962-3.551,2.047,2.047,0,0,0,1.548-1.938c.008-1.892-2.6-1.9-3.791-3.155-1.142-1.208-.562-3.351.77-4.346A7.56,7.56,0,0,1,103.8,75.63a14.192,14.192,0,0,0,4.946-.327C110.68,74.646,112.358,72.545,111.1,70.488Z" fill="#ad8a68"/><path d="M72.674,90.744q-1.579,0-3.159-.045a12.124,12.124,0,0,1-4.464-.734,5.08,5.08,0,0,1-3.205-3.819,7.017,7.017,0,0,1,.044-1.761,5.141,5.141,0,0,0,.045-1.3,3.036,3.036,0,0,0-2.061-2.154,11.081,11.081,0,0,0-3.787-.439l-17.3-.054a12.289,12.289,0,0,1-4.508-.6,4.85,4.85,0,0,1-3.222-3.88,3.058,3.058,0,0,1,.715-2.168,4.625,4.625,0,0,1,3.781-1.746l33.776.857c10.593.269,22.6.574,33.071-3.643l.532-.217c1.836-.753,3.915-1.606,6.209-1.062a4.5,4.5,0,0,1,2.809,1.979,3.683,3.683,0,0,1,.354,3.269,5.231,5.231,0,0,1-3.237,3.014,12.484,12.484,0,0,1-4.557.4l-.736-.024a6.706,6.706,0,0,0-4.146.881,2.554,2.554,0,0,0-.971,1.755,1.4,1.4,0,0,0,.329,1.1,4.786,4.786,0,0,0,1.441.842c1.109.5,2.63,1.185,2.622,3a3.038,3.038,0,0,1-2.294,2.9A110.474,110.474,0,0,1,72.674,90.744ZM35.432,74.049a2.61,2.61,0,0,0-2.075.972,1.152,1.152,0,0,0-.3.769,2.933,2.933,0,0,0,1.958,2.194,10.621,10.621,0,0,0,3.785.458l17.3.054a12.771,12.771,0,0,1,4.48.565,4.972,4.972,0,0,1,3.338,3.726,6.791,6.791,0,0,1-.034,1.824,5.345,5.345,0,0,0-.049,1.267,3.134,3.134,0,0,0,2,2.245,10.5,10.5,0,0,0,3.743.578,108.532,108.532,0,0,0,30.68-3.519,1.05,1.05,0,0,0,.8-.974c0-.45-.341-.676-1.444-1.173a6.273,6.273,0,0,1-2.072-1.292,3.36,3.36,0,0,1-.868-2.647,4.574,4.574,0,0,1,1.766-3.186,8.575,8.575,0,0,1,5.395-1.277l.759.024a10.806,10.806,0,0,0,3.84-.3,3.287,3.287,0,0,0,2-1.8,1.7,1.7,0,0,0-.181-1.545h0a2.493,2.493,0,0,0-1.564-1.077c-1.663-.395-3.277.266-4.986.966l-.544.222c-10.851,4.372-23.08,4.063-33.87,3.787L35.5,74.05Z" fill="#2f3a5a"/><path d="M71.093,46.216a3.448,3.448,0,0,0-1.99-1.459c-2.493-.734-5.035.708-7.295,2.59s-4.393,4.235-6.8,5.54c-2.3,1.249-4.337.994-6.579-.291-1.56-.894-3.936-1-4.15,2.713a5.844,5.844,0,0,0,1.383,4.162,4.335,4.335,0,0,0,2.892,1.307c3.113.3,6.175-1.2,9.16-2.687L69.3,52.329A3.9,3.9,0,0,0,71.722,49.5,4.786,4.786,0,0,0,71.093,46.216Z" fill="#ad8a68"/><path d="M49.357,61.816c-.3,0-.6-.014-.9-.042a5.308,5.308,0,0,1-3.525-1.616,6.881,6.881,0,0,1-1.652-4.905c.11-1.911.746-3.194,1.891-3.813a3.889,3.889,0,0,1,3.755.29c2.114,1.212,3.737,1.292,5.605.28a24.511,24.511,0,0,0,4.515-3.55c.7-.642,1.405-1.283,2.12-1.879,3.1-2.585,5.792-3.493,8.217-2.781a4.445,4.445,0,0,1,2.547,1.873h0a5.784,5.784,0,0,1,.772,4.017,4.918,4.918,0,0,1-2.962,3.536L58.161,58.986C55.48,60.32,52.474,61.816,49.357,61.816Zm-2.7-8.742a1.116,1.116,0,0,0-.537.123c-.479.26-.78,1.03-.847,2.169a4.848,4.848,0,0,0,1.113,3.42,3.311,3.311,0,0,0,2.26,1c2.862.277,5.79-1.179,8.619-2.587l11.581-5.762a2.894,2.894,0,0,0,1.888-2.116,3.8,3.8,0,0,0-.485-2.557,2.465,2.465,0,0,0-1.434-1.043c-1.762-.519-3.785.243-6.373,2.4-.691.577-1.371,1.2-2.051,1.819a26.279,26.279,0,0,1-4.91,3.832c-2.463,1.337-4.863,1.239-7.553-.3A2.729,2.729,0,0,0,46.662,53.074Z" fill="#2f3a5a"/><path d="M49.007,24.215a4.189,4.189,0,0,0,1.5,2.6c2.412,2.037,5.946,1.679,9.379.693s6.958-2.557,10.271-2.83c3.173-.261,5.309,1.018,7.173,3.546,1.3,1.758,3.884,3.045,5.943-.984a7.1,7.1,0,0,0,.5-5.305A5.267,5.267,0,0,0,81.2,19.062c-3.315-1.857-7.454-1.688-11.5-1.5L54,18.3a4.733,4.733,0,0,0-4.081,1.954A5.814,5.814,0,0,0,49.007,24.215Z" fill="#ad8a68"/><path d="M80.106,30.9a4.63,4.63,0,0,1-3.582-2.085c-1.785-2.419-3.66-3.361-6.286-3.143a30.37,30.37,0,0,0-6.807,1.746c-1.071.361-2.179.735-3.271,1.049-2.962.85-7.252,1.682-10.3-.891a5.184,5.184,0,0,1-1.841-3.2h0a6.811,6.811,0,0,1,1.072-4.688A5.786,5.786,0,0,1,53.951,17.3l15.7-.734c3.954-.185,8.433-.394,12.036,1.625a6.24,6.24,0,0,1,3.03,3.409,8.127,8.127,0,0,1-.554,6.093c-1.021,2-2.3,3.075-3.8,3.2C80.28,30.9,80.193,30.9,80.106,30.9Zm-9.168-7.258c2.9,0,5.2,1.282,7.2,3.986A2.679,2.679,0,0,0,80.2,28.9c.945-.077,1.706-1.192,2.177-2.114a6.106,6.106,0,0,0,.449-4.517,4.218,4.218,0,0,0-2.122-2.33c-3.1-1.739-7.1-1.552-10.965-1.372l-15.7.734a3.747,3.747,0,0,0-3.3,1.521,4.845,4.845,0,0,0-.747,3.237,3.2,3.2,0,0,0,1.156,1.992c1.764,1.488,4.45,1.646,8.459.5,1.048-.3,2.133-.667,3.183-1.021a31.782,31.782,0,0,1,7.282-1.844Q70.515,23.641,70.938,23.641Z" fill="#2f3a5a"/><path d="M85.927,51.791c-1.448,1.783-2.66,2.293-4.823,3.043-2.008.7-4.807,2.161-4.224,4.788a3.471,3.471,0,0,0,2.442,2.4,7.316,7.316,0,0,0,3.552.01,17.032,17.032,0,0,0,8.245-4.228,7.767,7.767,0,0,0,2.719-4.7C94.4,47.338,88.265,48.911,85.927,51.791Z" fill="#ad8a68"/><path d="M80.951,63.248a6.588,6.588,0,0,1-1.923-.269A4.42,4.42,0,0,1,75.9,59.839c-.565-2.552,1.166-4.666,4.874-5.95,2.18-.755,3.121-1.186,4.374-2.729h0c1.688-2.079,5.109-3.642,7.507-2.658.945.388,2.484,1.515,2.175,4.7A8.6,8.6,0,0,1,91.8,58.536a17.912,17.912,0,0,1-8.731,4.479A10.9,10.9,0,0,1,80.951,63.248ZM91.049,50.2A6.3,6.3,0,0,0,86.7,52.421h0a9.8,9.8,0,0,1-5.272,3.357c-1.855.643-3.981,1.794-3.575,3.627a2.5,2.5,0,0,0,1.757,1.66,6.264,6.264,0,0,0,3.065-.014,16.13,16.13,0,0,0,7.757-3.979,6.714,6.714,0,0,0,2.407-4.064c.141-1.449-.177-2.343-.943-2.657A2.24,2.24,0,0,0,91.049,50.2Z" fill="#2f3a5a"/><path d="M41.273,95.379a8.971,8.971,0,0,1-5.71-2.545c-1.71-1.392-4.671-3.043-7.485-.992a4.13,4.13,0,0,0-1.72,3.584,5.657,5.657,0,0,0,1.571,3.186,16.09,16.09,0,0,0,8.622,4.916,11.149,11.149,0,0,0,6.709-.3C50.258,100.367,45.684,95.794,41.273,95.379Z" fill="#ad8a68"/><path d="M39.638,104.9a14.913,14.913,0,0,1-3.309-.4,16.976,16.976,0,0,1-9.153-5.234,6.673,6.673,0,0,1-1.814-3.762,5.168,5.168,0,0,1,2.128-4.474c2.532-1.848,5.625-1.484,8.705,1.024a7.981,7.981,0,0,0,5.172,2.324h0c2.812.265,6.084,2.154,6.467,4.744.173,1.166-.143,3.37-4.2,5.025A10.492,10.492,0,0,1,39.638,104.9ZM30.944,91.884a3.788,3.788,0,0,0-2.277.766,3.121,3.121,0,0,0-1.312,2.695,4.634,4.634,0,0,0,1.328,2.61,15.2,15.2,0,0,0,8.091,4.6,10.084,10.084,0,0,0,6.107-.254c1.2-.489,3.176-1.514,2.973-2.881-.2-1.383-2.434-2.834-4.676-3.045a9.9,9.9,0,0,1-6.248-2.765A6.682,6.682,0,0,0,30.944,91.884Z" fill="#2f3a5a"/><path d="M116.082,28.546a12.739,12.739,0,0,1-1.51.764,56.352,56.352,0,0,1-14.253,4.2,5.661,5.661,0,0,1-2.169.041,2.061,2.061,0,0,1-1.568-1.36c-.321-1.214.881-2.279,2.017-2.816,2.87-1.36,6.126-1.558,9.253-2.121a18.61,18.61,0,0,0,4.833-1.467,7.675,7.675,0,0,0,.95-.588Q114.912,26.826,116.082,28.546Z" fill="#ad8a68"/><path d="M98.982,34.636a4.588,4.588,0,0,1-1.063-.117,3.019,3.019,0,0,1-2.306-2.08c-.479-1.812,1.078-3.273,2.557-3.973a25.583,25.583,0,0,1,7.272-1.844c.746-.112,1.492-.225,2.231-.357a17.437,17.437,0,0,0,4.571-1.382,6.849,6.849,0,0,0,.816-.51l.775-.54.583.743c.866,1.105,1.7,2.251,2.489,3.406l.59.867-.895.548a13.833,13.833,0,0,1-1.628.826,57.284,57.284,0,0,1-14.5,4.27A9.718,9.718,0,0,1,98.982,34.636Zm14.42-8.1c-.092.052-.185.1-.278.148a19.355,19.355,0,0,1-5.095,1.553c-.759.137-1.524.252-2.289.367a23.72,23.72,0,0,0-6.715,1.673c-.825.391-1.624,1.1-1.478,1.657a1.1,1.1,0,0,0,.832.642,4.783,4.783,0,0,0,1.785-.056,55.268,55.268,0,0,0,14-4.122c.148-.066.3-.134.452-.206C114.224,27.632,113.816,27.078,113.4,26.533Z" fill="#2f3a5a"/><path d="M115.393,50.9a3.636,3.636,0,0,0-3.075-1.392c-3.324.04-5.465,1.785-4.231,5.308a5.641,5.641,0,0,0,3,3.251,3.455,3.455,0,0,0,3.673-.31,4.9,4.9,0,0,0,1.142-3.33A5.42,5.42,0,0,0,115.393,50.9Z" fill="#ad8a68"/><path d="M112.808,59.447a5.267,5.267,0,0,1-2.126-.465,6.683,6.683,0,0,1-3.538-3.835,4.839,4.839,0,0,1,.308-4.585c.908-1.3,2.633-2.026,4.854-2.054a4.6,4.6,0,0,1,3.914,1.829h0a6.355,6.355,0,0,1,.678,4.174,5.7,5.7,0,0,1-1.463,3.985A3.845,3.845,0,0,1,112.808,59.447Zm-.437-8.939h-.041a3.908,3.908,0,0,0-3.239,1.2,3.022,3.022,0,0,0-.06,2.777,4.649,4.649,0,0,0,2.462,2.667,2.541,2.541,0,0,0,2.593-.133,4.114,4.114,0,0,0,.819-2.674,4.568,4.568,0,0,0-.339-2.884h0A2.666,2.666,0,0,0,112.37,50.508Z" fill="#2f3a5a"/><path d="M39.354,25.671a3.438,3.438,0,0,0-2.422-1.861c-4.967-.392-10.742,4.768-8.127,9.732,2.649,5.029,9.2,1.821,11.214-2.243A5.974,5.974,0,0,0,39.354,25.671Z" fill="#ad8a68"/><path d="M32.854,37.117a5.421,5.421,0,0,1-4.935-3.108,6.5,6.5,0,0,1,.444-6.845,9.917,9.917,0,0,1,8.647-4.35,4.3,4.3,0,0,1,3.194,2.334h0a6.882,6.882,0,0,1,.709,6.6,9.844,9.844,0,0,1-7.982,5.373ZM36.394,24.79a8.023,8.023,0,0,0-6.358,3.474,4.549,4.549,0,0,0-.346,4.813,3.431,3.431,0,0,0,3.219,2.04,7.947,7.947,0,0,0,6.214-4.26c.739-1.492.164-3.386-.619-4.661h0c-.3-.494-.92-1.33-1.647-1.387C36.7,24.8,36.548,24.79,36.394,24.79Z" fill="#2f3a5a"/><path d="M81.805,112.946a6.155,6.155,0,0,1-4.525,2.521,24.5,24.5,0,0,1-5.334-.229,48.494,48.494,0,0,0-30.488,7.28c-.107.069-.214.138-.321.2q-2.7-1.05-5.276-2.342,5.2-2.532,10.348-5.166c5.808-2.969,12.288-4.158,18.656-5.278l11.993-2.1c1.426-.25,3.015-.469,4.219.334A3.6,3.6,0,0,1,81.805,112.946Z" fill="#ad8a68"/><path d="M41.239,123.834l-.464-.181c-1.826-.71-3.631-1.512-5.361-2.381l-1.808-.907,1.817-.886c3.44-1.676,6.916-3.412,10.331-5.158,6.086-3.111,12.913-4.313,18.938-5.373l11.993-2.1c1.69-.3,3.462-.5,4.946.486,2.064,1.378,2.193,4.291,1.019,6.146h0A7.1,7.1,0,0,1,77.4,116.46a20.4,20.4,0,0,1-4.674-.135l-.882-.092A47.32,47.32,0,0,0,42,123.361Zm-3.086-3.463c.946.435,1.908.847,2.878,1.234a49.293,49.293,0,0,1,31.013-7.362l.9.093a18.566,18.566,0,0,0,4.217.139,5.13,5.13,0,0,0,3.8-2.063h0A2.606,2.606,0,0,0,80.522,109c-.87-.578-2.149-.416-3.491-.18l-11.993,2.1c-5.885,1.036-12.555,2.209-18.373,5.184C43.852,117.542,41,118.973,38.153,120.371Z" fill="#2f3a5a"/><path d="M22.152,73.27c-.457-5.075-8.981-4.367-4.558,1.583a3.978,3.978,0,0,0,1.973,1.463,1.9,1.9,0,0,0,1.379-.1A2.894,2.894,0,0,0,22.152,73.27Z" fill="#ad8a68"/><path d="M20.154,77.4a3.174,3.174,0,0,1-.858-.122,4.922,4.922,0,0,1-2.5-1.829c-2.058-2.769-1.5-4.469-.986-5.236a3.551,3.551,0,0,1,3.876-1.189,4.585,4.585,0,0,1,3.467,4.155c.128,1.425-.268,3.208-1.764,3.938A2.791,2.791,0,0,1,20.154,77.4Zm-1.581-6.517a1.319,1.319,0,0,0-1.108.445c-.285.425-.19,1.418.932,2.928a2.988,2.988,0,0,0,1.44,1.1.913.913,0,0,0,.67-.033c.546-.266.72-1.177.648-1.961h0a2.6,2.6,0,0,0-1.971-2.4A2.477,2.477,0,0,0,18.573,70.884Z" fill="#2f3a5a"/><path d="M23.882,53.442a7.021,7.021,0,0,1-3.88.379c-6.113-.787-11.333-4.586-16.227-8.374Q4.5,43.1,5.395,40.834c.1.059.211.12.318.183,4.443,2.663,8.413,5.658,13.767,6.167a17.541,17.541,0,0,1,3.819.5,3.52,3.52,0,0,1,2.546,2.628A3.218,3.218,0,0,1,23.882,53.442Z" fill="#ad8a68"/><path d="M21.437,54.924a12.179,12.179,0,0,1-1.562-.11c-6.241-.8-11.467-4.515-16.712-8.576l-.547-.423.2-.661C3.3,43.6,3.852,42.021,4.464,40.467L4.885,39.4l1,.561c.113.063.229.129.344.2.7.421,1.4.852,2.086,1.28,3.592,2.232,6.984,4.341,11.262,4.748.316.03.635.052.953.073a12.365,12.365,0,0,1,3.082.474,4.488,4.488,0,0,1,3.227,3.448,4.177,4.177,0,0,1-2.531,4.166A6.731,6.731,0,0,1,21.437,54.924Zm-16.5-9.842C9.771,48.8,14.6,52.118,20.13,52.83a5.971,5.971,0,0,0,3.328-.293h0a2.256,2.256,0,0,0,1.395-2.094,2.587,2.587,0,0,0-1.865-1.807,10.713,10.713,0,0,0-2.594-.38c-.338-.022-.676-.045-1.011-.077-4.743-.451-8.5-2.784-12.127-5.04Q6.584,42.72,5.9,42.3C5.557,43.227,5.234,44.157,4.938,45.082Z" fill="#2f3a5a"/><g opacity="0.15"><circle cx="45.858" cy="54.276" r="34.879" fill="#fff"/></g></g></svg>
